<svg xmlns="http://www.w3.org/2000/svg" width="345" height="148" fill="none" viewBox="0 0 345 148"><g clip-path="url(#a)"><path fill="#75c044" fill-rule="evenodd" d="M316.702 50.639h-59.65v3.485c0 6.41-3.106 9.613-9.308 9.613h-20.422v-9.613h16.504c2.24 0 3.384-1.111 3.384-3.324h-12.192c-5.128 0-7.696-2.39-7.696-7.182V29.257c0-4.82 2.584-7.21 7.733-7.21h14.273c5.149 0 7.727 2.39 7.727 7.21v11.81h6.855v-19.08h9.636v19.08h8.736v-19.08h9.643v19.08h8.926v-19.08h9.63v19.08h4.393c2.812 0 4.218-1.453 4.218-4.318V0h9.827v41.067c0 6.378-3.253 9.569-9.733 9.569h-2.481zm-69.492-11.87v-4.792q-.002-2.314-2.578-2.314h-5.008q-2.638 0-2.637 2.314v4.792q0 2.403 2.637 2.403h5.008c1.712 0 2.578-.801 2.578-2.403m-28.149-25.415c0 1.349-.469 2.523-1.4 3.486-.944.949-2.087 1.408-3.434 1.408s-2.447-.49-3.353-1.453c-.921-.965-1.39-2.108-1.39-3.44 0-1.333.469-2.495 1.39-3.457.909-.966 2.044-1.44 3.353-1.44s2.49.459 3.434 1.424q1.398 1.402 1.4 3.472m-11.013 0c0 1.336-.468 2.491-1.406 3.441-.953.965-2.065 1.453-3.39 1.453s-2.437-.49-3.39-1.453c-.937-.95-1.39-2.108-1.39-3.44 0-1.333.453-2.508 1.39-3.457.953-.966 2.078-1.44 3.39-1.44s2.437.474 3.39 1.44c.953.965 1.406 2.105 1.406 3.456m15.347 36.943c0 6.454-2.225 13.262-6.693 17.773-4.446 4.51-9.87 6.765-16.257 6.765q-9.578-.001-16.256-6.765c-3.978-4.02-6.181-8.843-6.612-14.405h9.689c.329 2.877 1.625 5.476 3.896 7.774 2.65 2.716 5.712 4.064 9.161 4.064 3.45 0 6.693-1.307 9.308-3.963 2.606-2.611 3.925-7.062 3.925-10.711h-12.111c-5.177 0-7.767-2.39-7.767-7.182V29.314c0-4.82 2.593-7.226 7.755-7.226h14.213c5.156 0 7.755 2.402 7.755 7.242v20.964zm-9.841-11.44v-4.836c0-1.545-.85-2.33-2.518-2.33h-4.993c-1.669 0-2.519.785-2.519 2.33v4.837c0 1.557.85 2.358 2.519 2.358h4.993c1.668 0 2.518-.801 2.518-2.358M334.1 50.64h9.636V0H334.1z" clip-rule="evenodd"/><path fill="#2853a2" fill-rule="evenodd" d="M71.584 53.854c0 6.378-3.107 9.565-9.305 9.565H41.856v-9.565h16.497c2.257 0 3.392-1.105 3.392-3.307h-12.19c-5.136 0-7.7-2.378-7.7-7.146V29.11c0-4.797 2.58-7.175 7.737-7.175H63.86c5.148 0 7.72 2.378 7.72 7.175v11.751h4.864V21.965h9.64v18.897h7.939v-11.81c0-4.797 2.557-7.175 7.692-7.175h14.132c5.151 0 7.729 2.378 7.729 7.175v11.81h5.333V21.877h21.918c5.157 0 7.736 2.378 7.736 7.159v11.826h.703c2.819 0 4.235-1.445 4.235-4.296V0h9.824v40.862c0 6.082-2.988 9.257-8.942 9.521h-92.8zm-9.838-15.279v-4.768c0-1.534-.873-2.302-2.585-2.302h-5.01c-1.745 0-2.623.768-2.623 2.302v4.768c0 1.594.878 2.39 2.622 2.39h5.01c1.713 0 2.586-.796 2.586-2.39M92.04 13.212q-.001 1.997-1.385 3.44c-.953.944-2.088 1.417-3.429 1.417s-2.438-.489-3.363-1.446c-.916-.96-1.369-2.082-1.369-3.41 0-1.33.453-2.48 1.369-3.425.922-.96 2.044-1.445 3.363-1.445 1.32 0 2.476.488 3.43 1.417.921.96 1.384 2.091 1.384 3.452m-11.088.003c0 1.33-.453 2.45-1.391 3.411-.944.96-2.05 1.446-3.376 1.446-1.325 0-2.438-.488-3.376-1.446-.937-.96-1.4-2.082-1.4-3.41 0-1.33.463-2.48 1.4-3.424.938-.96 2.067-1.446 3.376-1.446 1.31 0 2.432.488 3.376 1.446.938.945 1.391 2.082 1.391 3.423m32.62-.207c0 1.329-.484 2.466-1.422 3.44-.953.96-2.072 1.445-3.401 1.445s-2.447-.488-3.385-1.446c-.959-.973-1.435-2.11-1.435-3.44 0-1.328.476-2.478 1.435-3.41.938-.945 2.066-1.433 3.385-1.433s2.448.488 3.401 1.433a4.66 4.66 0 0 1 1.422 3.41m.188 25.495v-4.784c0-1.534-.85-2.303-2.519-2.303h-4.982q-2.506.001-2.507 2.303v4.784c0 1.55.834 2.362 2.507 2.362h4.982c1.669 0 2.519-.812 2.519-2.362m34.9 0v-4.784c0-1.534-.85-2.303-2.519-2.303h-7.311v9.45h7.311c1.669 0 2.519-.813 2.519-2.363m28.156 11.883h9.634V0h-9.634zM14.364 51.507q3.013-2.645 7.3-2.645H38.05V30.578h-.079v-1.473c0-4.387-2.67-6.558-8.027-6.558-6.775 0-17.7.365-20.338-.985 0 9.45 1.328 9.624 13.49 9.624 2.958 0 4.47 1.308 4.47 3.913v4.804h-.257l.004.006H20.44q-8.569 0-14.507 5.124C1.98 48.445 0 52.682 0 57.735q.002 7.579 5.933 12.975 5.933 5.393 14.507 5.393h17.611v-9.038H21.663q-4.332 0-7.321-2.645-2.99-2.645-2.99-6.476c0-2.555 1.003-4.674 3.012-6.437" clip-rule="evenodd"/><mask id="b" width="344" height="85" x="0" y="73" maskUnits="userSpaceOnUse" style="mask-type:luminance"><path fill="#fff" fill-rule="evenodd" d="M0 73.789h343.732v83.713H0z" clip-rule="evenodd"/></mask><g mask="url(#b)"><path fill="#2853a2" fill-rule="evenodd" d="M335.94 83.789H7.792C3.488 83.789 0 87.29 0 91.61v48.068c0 4.32 3.488 7.823 7.792 7.823H335.94c4.303 0 7.792-3.503 7.792-7.823V91.611c0-4.32-3.489-7.823-7.792-7.823" clip-rule="evenodd"/></g><path fill="#fff" fill-rule="evenodd" d="M305.309 97.29q7.416 0 15.317 2.116v41.1l-11.851.494v-9.584q0-2.68 1.039-6.275l-.208-.141q-1.732 3.172-4.505 4.512-2.772 1.269-5.198 1.269-5.405 0-8.732-3.878-3.327-3.948-3.327-11.845 0-5.288 1.317-9.588 1.317-4.301 3.188-5.57 2.01-1.34 5.475-1.974 3.465-.636 7.485-.635m-.415 23.691q1.664 0 3.881-.634v-14.736q-.83-.141-2.494-.282-.624-.07-1.872-.071-2.703 0-3.049.564-.625.987-.97 3.596a34 34 0 0 0-.347 4.795q0 3.666 1.178 5.217 1.179 1.551 3.673 1.551m-37.829 10.305q-8.463 0-12.695-3.941-4.161-4.013-4.161-12.599 0-4.716.846-8.235.917-3.59 2.186-4.998 1.623-1.83 5.925-3.026 4.373-1.197 8.181-1.197 9.099 0 12.978 3.871 3.88 3.871 3.88 12.388 0 9.15-4.162 13.443-4.161 4.294-12.978 4.294m.213-8.235q2.75 0 3.597-1.9.846-1.972.846-6.898 0-3.449-.353-5.279-.352-1.9-1.34-2.745-.917-.915-2.891-.915-2.822 0-3.245.493-.564.493-.917 3.097a40 40 0 0 0-.352 5.419q0 4.787.917 6.757.986 1.971 3.738 1.971m-36.641 8.235q-8.463 0-12.695-3.941-4.161-4.013-4.161-12.599 0-4.716.846-8.235.917-3.59 2.186-4.998 1.623-1.83 5.925-3.026 4.372-1.197 8.182-1.197 9.098 0 12.977 3.871t3.879 12.388q0 9.15-4.161 13.443-4.161 4.294-12.978 4.294m.213-8.235q2.75 0 3.597-1.9.846-1.972.846-6.898 0-3.449-.353-5.279-.353-1.9-1.34-2.745-.917-.915-2.891-.915-2.822 0-3.245.493-.564.493-.917 3.097a40 40 0 0 0-.352 5.419q0 4.787.916 6.757.988 1.971 3.739 1.971m-39.769-21.998q0 1.488 1.493 2.337 1.563.85 4.835 1.841 3.91 1.275 6.398 2.478 2.56 1.205 4.409 3.753 1.919 2.549 1.919 6.656 0 13.17-17.206 13.17-2.844 0-6.967-.495-4.053-.496-7.394-1.275.142-1.487.568-4.319.498-2.903.925-4.32 2.488.355 7.465.85 5.048.496 7.607.496 1.494 0 1.778-.213.427-.282.64-.92.284-.708.284-1.204 0-1.416-1.351-2.124-1.35-.779-4.621-1.841-3.91-1.203-6.47-2.478t-4.479-3.966-1.92-7.08q0-3.115 1.422-6.09 1.422-3.045 2.915-4.106 1.138-.78 4.692-1.487 3.556-.708 6.684-.708 7.964 0 13.011 1.487-.072 1.416-.498 3.894a75 75 0 0 1-.782 4.531l-1.635-.07q-9.243-.638-11.802-.638-1.067 0-1.209.071-.285.141-.498.637-.213.497-.213 1.133m-18.642-1.043q.637.768.921 3.836.354 3.07.354 9.347v16.879h-12.108v-19.6q0-2.231-.354-2.789-.566-.698-2.619-.698-.992 0-1.487.07-1.983.069-4.107.906v22.111h-12.107V97.989h9.842l1.345 5.37q5.097-6.068 12.178-6.068 2.548 0 4.744.698 2.265.697 3.398 2.022m-45.878 21.947q1.754 0 6.524-.354.632 0 2.315-.141l1.052 7.28q-5.401 2.544-14.03 2.544-8.067 0-12.416-4.099-4.28-4.1-4.28-12.369 0-4.24 1.053-8.199 1.122-3.957 2.525-5.512 1.473-1.555 5.472-2.686t7.927-1.131q6.313 0 9.47 2.262 3.157 2.26 4.139 6.29.982 3.958.982 10.672-4.77.283-9.33.283h-9.961q0 2.262.912 3.392.981 1.132 2.736 1.485 1.754.283 4.91.283m-7.856-16.256q-.421.212-.632 1.837a39 39 0 0 0-.28 3.676h3.648q3.296 0 4.77-.071 0-3.392-.983-4.806-.911-1.414-3.226-1.413-1.894 0-3.297.777M91.2 97.29q4.99 0 7.9 3.401 2.98 3.33 2.98 11.689 0 6.234-1.178 10.201-1.178 3.896-2.703 5.172t-5.337 2.054a38 38 0 0 1-7.762.78q-1.178 0-3.95-.142v10.059L69.298 141V98h9.703l1.179 5.029a13.5 13.5 0 0 1 4.573-4.18q2.842-1.558 6.446-1.558m-2.774 24.654q.763-.567 1.11-3.188.346-2.692.346-5.1 0-3.968-.97-5.88-.971-1.913-3.882-1.913-2.08 0-3.881.425v15.727l1.94.212q.901.072 2.565.071 2.356 0 2.772-.354m-43.572 9.344q-10.24 0-15.395-4.897-5.085-4.968-5.085-15.883 0-10.705 5.635-15.603t14.914-4.897q19.517 0 19.517 19.8 0 10.005-4.81 15.743-4.743 5.737-14.776 5.737m-.275-8.256q1.924 0 3.23-.63 1.305-.7 2.061-2.378 1.444-2.87 1.444-9.376 0-6.367-1.444-9.236-1.443-2.939-5.291-3.078-1.444 0-3.024.35-1.512.28-1.925.839-.825.98-1.305 4.198-.413 3.148-.413 6.927 0 5.877 1.1 8.606.756 2.029 2.13 2.938 1.375.84 3.437.84" clip-rule="evenodd"/></g><defs><clipPath id="a"><path fill="#fff" d="M0 0h345v148H0z"/></clipPath></defs></svg>